<svg width="51" height="53" viewBox="0 0 51 53" fill="none" xmlns="http://www.w3.org/2000/svg">
<path fill-rule="evenodd" clip-rule="evenodd" d="M5.53973 9.14883C5.53973 8.77232 5.68366 8.41123 5.93985 8.14499C6.19604 7.87876 6.5435 7.72919 6.90581 7.72919H11.004C11.3087 7.72927 11.6047 7.83524 11.8448 8.03022C12.0849 8.22521 12.2554 8.49802 12.3291 8.80528L13.4356 13.4078H45.1558C45.3633 13.4078 45.5681 13.457 45.7546 13.5516C45.941 13.6462 46.1043 13.7836 46.2321 13.9536C46.3598 14.1235 46.4486 14.3215 46.4917 14.5324C46.5348 14.7434 46.5311 14.9617 46.4809 15.171L42.3827 32.2067C42.3089 32.5139 42.1385 32.7867 41.8984 32.9817C41.6583 33.1767 41.3623 33.2827 41.0576 33.2828H16.4683C16.1636 33.2827 15.8676 33.1767 15.6275 32.9817C15.3874 32.7867 15.217 32.5139 15.1432 32.2067L9.93848 10.5685H6.90581C6.5435 10.5685 6.19604 10.4189 5.93985 10.1527C5.68366 9.88643 5.53973 9.52534 5.53973 9.14883ZM14.1187 16.247L17.5338 30.4435H39.9921L43.4072 16.247H14.1187ZM19.2004 38.9613C18.4758 38.9613 17.7809 39.2605 17.2685 39.7929C16.7562 40.3254 16.4683 41.0476 16.4683 41.8006C16.4683 42.5536 16.7562 43.2758 17.2685 43.8083C17.7809 44.3408 18.4758 44.6399 19.2004 44.6399C19.9251 44.6399 20.62 44.3408 21.1324 43.8083C21.6447 43.2758 21.9326 42.5536 21.9326 41.8006C21.9326 41.0476 21.6447 40.3254 21.1324 39.7929C20.62 39.2605 19.9251 38.9613 19.2004 38.9613ZM13.7362 41.8006C13.7362 40.2946 14.3119 38.8502 15.3366 37.7853C16.3614 36.7203 17.7512 36.122 19.2004 36.122C20.6497 36.122 22.0395 36.7203 23.0643 37.7853C24.089 38.8502 24.6647 40.2946 24.6647 41.8006C24.6647 43.3067 24.089 44.751 23.0643 45.816C22.0395 46.8809 20.6497 47.4792 19.2004 47.4792C17.7512 47.4792 16.3614 46.8809 15.3366 45.816C14.3119 44.751 13.7362 43.3067 13.7362 41.8006ZM38.3254 38.9613C37.6008 38.9613 36.9059 39.2605 36.3935 39.7929C35.8812 40.3254 35.5933 41.0476 35.5933 41.8006C35.5933 42.5536 35.8812 43.2758 36.3935 43.8083C36.9059 44.3408 37.6008 44.6399 38.3254 44.6399C39.0501 44.6399 39.745 44.3408 40.2574 43.8083C40.7697 43.2758 41.0576 42.5536 41.0576 41.8006C41.0576 41.0476 40.7697 40.3254 40.2574 39.7929C39.745 39.2605 39.0501 38.9613 38.3254 38.9613ZM32.8612 41.8006C32.8612 40.2946 33.4369 38.8502 34.4616 37.7853C35.4864 36.7203 36.8762 36.122 38.3254 36.122C39.7747 36.122 41.1645 36.7203 42.1893 37.7853C43.214 38.8502 43.7897 40.2946 43.7897 41.8006C43.7897 43.3067 43.214 44.751 42.1893 45.816C41.1645 46.8809 39.7747 47.4792 38.3254 47.4792C36.8762 47.4792 35.4864 46.8809 34.4616 45.816C33.4369 44.751 32.8612 43.3067 32.8612 41.8006Z" fill="#242424"/>
</svg>
