<svg width="34" height="34" viewBox="0 0 34 34" fill="none" xmlns="http://www.w3.org/2000/svg">
<g clip-path="url(#clip0_23_11)">
<path d="M17 2.83337C24.82 2.83337 31.1666 9.18004 31.1666 17C31.1666 24.82 24.82 31.1667 17 31.1667C9.17998 31.1667 2.83331 24.82 2.83331 17C2.83331 9.18004 9.17998 2.83337 17 2.83337ZM17 5.66671C10.7383 5.66671 5.66665 10.7384 5.66665 17C5.66665 23.2617 10.7383 28.3334 17 28.3334C23.2616 28.3334 28.3333 23.2617 28.3333 17C28.3333 10.7384 23.2616 5.66671 17 5.66671ZM17 9.91671C19.5783 9.91671 21.8351 11.2951 23.0746 13.3564L20.6465 14.8141C20.2644 14.177 19.7219 13.6511 19.0731 13.289C18.4244 12.9269 17.6921 12.7412 16.9491 12.7504C16.2062 12.7596 15.4787 12.9633 14.8391 13.3414C14.1996 13.7194 13.6702 14.2585 13.304 14.905C12.9377 15.5514 12.7474 16.2825 12.7518 17.0255C12.7562 17.7684 12.9554 18.4972 13.3293 19.1392C13.7033 19.7812 14.239 20.3139 14.8831 20.6843C15.5271 21.0547 16.257 21.2497 17 21.25C17.734 21.2505 18.4556 21.0608 19.0945 20.6993C19.7333 20.3378 20.2675 19.8169 20.6451 19.1874L23.0746 20.6437C22.2785 21.9734 21.0681 23.0053 19.6292 23.581C18.1903 24.1567 16.6022 24.2444 15.1086 23.8308C13.615 23.4172 12.2983 22.5251 11.3604 21.2912C10.4226 20.0573 9.9154 18.5499 9.91665 17C9.91665 13.09 13.09 9.91671 17 9.91671Z" fill="#03053D"/>
</g>
<defs>
<clipPath id="clip0_23_11">
<rect width="34" height="34" fill="white"/>
</clipPath>
</defs>
</svg>
