<svg width="38" height="38" viewBox="0 0 38 38" fill="none" xmlns="http://www.w3.org/2000/svg">
<g clip-path="url(#clip0_23_23)">
<path d="M19 3.16663C10.2553 3.16663 3.16669 10.2552 3.16669 19C3.16669 26.9024 8.95694 33.4526 16.5269 34.6417V23.5758H12.5052V19H16.5269V15.5119C16.5269 11.544 18.8892 9.35271 22.5071 9.35271C24.2393 9.35271 26.0506 9.66146 26.0506 9.66146V13.5565H24.0556C22.0875 13.5565 21.4748 14.7772 21.4748 16.0296V19H25.8654L25.1639 23.5758H21.4748V34.6417C29.0431 33.4542 34.8334 26.9008 34.8334 19C34.8334 10.2552 27.7448 3.16663 19 3.16663Z" fill="#03053D"/>
</g>
<defs>
<clipPath id="clip0_23_23">
<rect width="38" height="38" fill="white"/>
</clipPath>
</defs>
</svg>
