<svg width="38" height="38" viewBox="0 0 38 38" fill="none" xmlns="http://www.w3.org/2000/svg">
<path d="M19 14.2501C17.7402 14.2501 16.5321 14.7505 15.6413 15.6413C14.7505 16.5321 14.25 17.7403 14.25 19.0001C14.25 20.2599 14.7505 21.468 15.6413 22.3588C16.5321 23.2496 17.7402 23.7501 19 23.7501C20.2598 23.7501 21.468 23.2496 22.3588 22.3588C23.2496 21.468 23.75 20.2599 23.75 19.0001C23.75 17.7403 23.2496 16.5321 22.3588 15.6413C21.468 14.7505 20.2598 14.2501 19 14.2501ZM19 11.0834C21.0997 11.0834 23.1133 11.9175 24.5979 13.4022C26.0826 14.8868 26.9167 16.9005 26.9167 19.0001C26.9167 21.0997 26.0826 23.1133 24.5979 24.598C23.1133 26.0827 21.0997 26.9167 19 26.9167C16.9004 26.9167 14.8868 26.0827 13.4021 24.598C11.9174 23.1133 11.0834 21.0997 11.0834 19.0001C11.0834 16.9005 11.9174 14.8868 13.4021 13.4022C14.8868 11.9175 16.9004 11.0834 19 11.0834V11.0834ZM29.2917 10.6876C29.2917 11.2125 29.0832 11.7159 28.712 12.0871C28.3408 12.4582 27.8374 12.6667 27.3125 12.6667C26.7876 12.6667 26.2842 12.4582 25.913 12.0871C25.5419 11.7159 25.3334 11.2125 25.3334 10.6876C25.3334 10.1627 25.5419 9.65927 25.913 9.2881C26.2842 8.91693 26.7876 8.70841 27.3125 8.70841C27.8374 8.70841 28.3408 8.91693 28.712 9.2881C29.0832 9.65927 29.2917 10.1627 29.2917 10.6876V10.6876ZM19 6.33341C15.0829 6.33341 14.4432 6.3445 12.6208 6.42525C11.3794 6.48383 10.5466 6.65008 9.77394 6.95091C9.08677 7.21691 8.59119 7.53516 8.06394 8.064C7.56836 8.5428 7.18733 9.12734 6.94927 9.774C6.64844 10.5498 6.48219 11.3811 6.42519 12.6208C6.34285 14.3688 6.33335 14.98 6.33335 19.0001C6.33335 22.9172 6.34444 23.5569 6.42519 25.3793C6.48377 26.6191 6.65002 27.4535 6.94927 28.2246C7.21844 28.9133 7.5351 29.4089 8.06077 29.9346C8.59435 30.4666 9.08994 30.7848 9.77077 31.0477C10.5529 31.3501 11.3858 31.5179 12.6208 31.5749C14.3688 31.6572 14.9799 31.6667 19 31.6667C22.9172 31.6667 23.5569 31.6557 25.3793 31.5749C26.6174 31.5163 27.4519 31.3501 28.2245 31.0508C28.9101 30.7832 29.4089 30.465 29.9345 29.9393C30.4681 29.4057 30.7864 28.9102 31.0492 28.2293C31.35 27.4487 31.5179 26.6143 31.5749 25.3793C31.6572 23.6313 31.6667 23.0202 31.6667 19.0001C31.6667 15.0829 31.6556 14.4432 31.5749 12.6208C31.5163 11.3827 31.35 10.5467 31.0492 9.774C30.8106 9.128 30.4302 8.54369 29.9361 8.064C29.4575 7.56817 28.8729 7.1871 28.2261 6.94933C27.4503 6.6485 26.6174 6.48225 25.3793 6.42525C23.6313 6.34291 23.0201 6.33341 19 6.33341ZM19 3.16675C23.3019 3.16675 23.8387 3.18258 25.5265 3.26175C27.2128 3.34091 28.3607 3.60533 29.3709 3.998C30.4159 4.40016 31.2962 4.94483 32.1765 5.82358C32.9816 6.61508 33.6046 7.57251 34.0021 8.62925C34.3932 9.63783 34.6592 10.7873 34.7384 12.4736C34.8128 14.1614 34.8334 14.6982 34.8334 19.0001C34.8334 23.302 34.8175 23.8387 34.7384 25.5266C34.6592 27.2128 34.3932 28.3607 34.0021 29.3709C33.6058 30.4282 32.9826 31.3859 32.1765 32.1766C31.3848 32.9814 30.4274 33.6044 29.3709 34.0022C28.3623 34.3932 27.2128 34.6592 25.5265 34.7384C23.8387 34.8128 23.3019 34.8334 19 34.8334C14.6981 34.8334 14.1614 34.8176 12.4735 34.7384C10.7873 34.6592 9.63935 34.3932 8.62919 34.0022C7.57204 33.6055 6.61444 32.9824 5.82352 32.1766C5.01825 31.3852 4.39524 30.4277 3.99794 29.3709C3.60527 28.3623 3.34085 27.2128 3.26169 25.5266C3.18727 23.8387 3.16669 23.302 3.16669 19.0001C3.16669 14.6982 3.18252 14.1614 3.26169 12.4736C3.34085 10.7857 3.60527 9.63941 3.99794 8.62925C4.39414 7.57187 5.01729 6.61417 5.82352 5.82358C6.61467 5.01803 7.5722 4.39499 8.62919 3.998C9.63935 3.60533 10.7857 3.34091 12.4735 3.26175C14.1614 3.18733 14.6981 3.16675 19 3.16675Z" fill="#03053D"/>
</svg>
