<svg width="38" height="38" viewBox="0 0 38 38" fill="none" xmlns="http://www.w3.org/2000/svg">
<path d="M4.85129 11.8909C6.16864 9.26772 8.18955 7.06256 10.6881 5.52191C13.1867 3.98126 16.0646 3.16582 19 3.16675C23.267 3.16675 26.8517 4.73425 29.5925 7.29133L25.053 11.8323C23.4111 10.2632 21.3243 9.46367 19 9.46367C14.8754 9.46367 11.3841 12.2503 10.1412 15.9918C9.82454 16.9418 9.64404 17.9551 9.64404 19.0001C9.64404 20.0451 9.82454 21.0584 10.1412 22.0084C11.3857 25.7514 14.8754 28.5365 19 28.5365C21.1295 28.5365 22.9425 27.9744 24.3611 27.0244C25.1836 26.4829 25.8877 25.7803 26.4309 24.959C26.9741 24.1376 27.3451 23.2147 27.5215 22.2459H19V16.1216H33.9118C34.0986 17.1571 34.2 18.2369 34.2 19.3595C34.2 24.1823 32.4741 28.242 29.4785 30.997C26.8596 33.4163 23.275 34.8334 19 34.8334C16.9205 34.8342 14.8612 34.4253 12.9398 33.6299C11.0185 32.8345 9.27267 31.6682 7.80225 30.1978C6.33182 28.7274 5.16558 26.9816 4.37017 25.0602C3.57477 23.1389 3.16579 21.0796 3.16663 19.0001C3.16663 16.4446 3.77779 14.0284 4.85129 11.8909Z" fill="#03053D"/>
</svg>
